<svg version="1.1" preserveAspectRatio="none" xmlns="http://www.w3.org/2000/svg" width="500" height="500" viewBox="0 0 500 500"><svg viewBox="895 419.0098 380 96.4804" width="417" height="105.87454421052631" x="41.5px" y="197.0627px" xmlns="http://www.w3.org/2000/svg" xmlns:xlink="http://www.w3.org/1999/xlink" preserveAspectRatio="none"><defs></defs><style>.aIptOCySncolors-34183e016-9acd-4cb5-b99b-9019b7296d8e {fill:#21303A;fill-opacity:1;}.aIptOCySncolors-44183e016-9acd-4cb5-b99b-9019b7296d8e {fill:#51819E;fill-opacity:1;}.aIptOCySncolors-54183e016-9acd-4cb5-b99b-9019b7296d8e {fill:#064B75;fill-opacity:1;}.aIptOCySncolors-64183e016-9acd-4cb5-b99b-9019b7296d8e {fill:#ACA58C;fill-opacity:1;}.aIptOCySncolors-74183e016-9acd-4cb5-b99b-9019b7296d8e {fill:#3E5563;fill-opacity:1;}.companyName4183e016-9acd-4cb5-b99b-9019b7296d8e {fill:#EBE7D9;fill-opacity:1;}.icon14183e016-9acd-4cb5-b99b-9019b7296d8e {fill:#FFF5D0;fill-opacity:1;}.icon24183e016-9acd-4cb5-b99b-9019b7296d8e {fill:#BA3521;fill-opacity:1;}.icon3-str4183e016-9acd-4cb5-b99b-9019b7296d8e {stroke:#F55139;stroke-opacity:1;}.icon34183e016-9acd-4cb5-b99b-9019b7296d8e {fill:#F55139;fill-opacity:1;}</style><g opacity="1" transform="rotate(0 895 419.0098)">
<svg width="188.2546" height="96.4804" x="895" y="419.0098" version="1.1" preserveAspectRatio="none" viewBox="20 59 160 82">
  <g transform="matrix(1 0 0 1 0 0)"><g><path d="M96.5 141H68.7l-16.4-29 13.9-24.6L96.5 141z" data-color="1" class="icon14183e016-9acd-4cb5-b99b-9019b7296d8e"></path><path d="M48.7 141H20l46.9-82h28.7l-46.9 82z" data-color="2" class="icon24183e016-9acd-4cb5-b99b-9019b7296d8e"></path><path d="M97.6 141H68.9l46.9-82h28.7l-46.9 82z" data-color="3" class="icon34183e016-9acd-4cb5-b99b-9019b7296d8e"></path><path d="M180 141h-28.8l-16.9-29 14.4-24.6L180 141z" data-color="1" class="icon14183e016-9acd-4cb5-b99b-9019b7296d8e"></path></g></g>
</svg>
</g><g opacity="1" transform="rotate(0 1107.3747 419.0098)">
<svg width="167.6253" height="96.4804" x="1107.3747" y="419.0098" version="1.1" preserveAspectRatio="none" viewBox="-0.56 -28.48 119.8 68.96000000000001">
  <g transform="matrix(1 0 0 1 0 0)" class="companyName4183e016-9acd-4cb5-b99b-9019b7296d8e"><path id="id-4183e016-9acd-4cb5-b99b-9019b7296d8eD6z1nYkh8" d="M27.64-28L16.76-9.92L16.76 0L10.28 0L10.28-10L-0.56-28L6.32-28L13.80-15.56L21.28-28L27.64-28Z M42.72 0.48Q38.36 0.48 34.86-1.40Q31.36-3.28 29.38-6.58Q27.40-9.88 27.40-14L27.40-14Q27.40-18.12 29.38-21.42Q31.36-24.72 34.86-26.60Q38.36-28.48 42.72-28.48L42.72-28.48Q47.08-28.48 50.56-26.60Q54.04-24.72 56.04-21.42Q58.04-18.12 58.04-14L58.04-14Q58.04-9.88 56.04-6.58Q54.04-3.28 50.56-1.40Q47.08 0.48 42.72 0.48L42.72 0.48ZM42.72-5.04Q45.20-5.04 47.20-6.18Q49.20-7.32 50.34-9.36Q51.48-11.40 51.48-14L51.48-14Q51.48-16.60 50.34-18.64Q49.20-20.68 47.20-21.82Q45.20-22.96 42.72-22.96L42.72-22.96Q40.24-22.96 38.24-21.82Q36.24-20.68 35.10-18.64Q33.96-16.60 33.96-14L33.96-14Q33.96-11.40 35.10-9.36Q36.24-7.32 38.24-6.18Q40.24-5.04 42.72-5.04L42.72-5.04Z M75.36 0.48Q69.36 0.48 66.02-2.84Q62.68-6.16 62.68-12.32L62.68-12.32L62.68-28L69.16-28L69.16-12.56Q69.16-5.04 75.40-5.04L75.40-5.04Q78.44-5.04 80.04-6.86Q81.64-8.68 81.64-12.56L81.64-12.56L81.64-28L88.04-28L88.04-12.32Q88.04-6.16 84.70-2.84Q81.36 0.48 75.36 0.48L75.36 0.48Z M119.24 0L112.28 0L106.88-7.80L106.56-7.80L100.92-7.80L100.92 0L94.44 0L94.44-28L106.56-28Q110.28-28 113.02-26.76Q115.76-25.52 117.24-23.24Q118.72-20.96 118.72-17.84L118.72-17.84Q118.72-14.72 117.22-12.46Q115.72-10.20 112.96-9L112.96-9L119.24 0ZM112.16-17.84Q112.16-20.20 110.64-21.46Q109.12-22.72 106.20-22.72L106.20-22.72L100.92-22.72L100.92-12.96L106.20-12.96Q109.12-12.96 110.64-14.24Q112.16-15.52 112.16-17.84L112.16-17.84Z M-0.56 40L-0.56 12L5.92 12L5.92 34.72L19.96 34.72L19.96 40L-0.56 40Z M36.68 40.48Q32.32 40.48 28.82 38.60Q25.32 36.72 23.34 33.42Q21.36 30.12 21.36 26L21.36 26Q21.36 21.88 23.34 18.58Q25.32 15.28 28.82 13.40Q32.32 11.52 36.68 11.52L36.68 11.52Q41.04 11.52 44.52 13.40Q48 15.28 50 18.58Q52 21.88 52 26L52 26Q52 30.12 50 33.42Q48 36.72 44.52 38.60Q41.04 40.48 36.68 40.48L36.68 40.48ZM36.68 34.96Q39.16 34.96 41.16 33.82Q43.16 32.68 44.30 30.64Q45.44 28.60 45.44 26L45.44 26Q45.44 23.40 44.30 21.36Q43.16 19.32 41.16 18.18Q39.16 17.04 36.68 17.04L36.68 17.04Q34.20 17.04 32.20 18.18Q30.20 19.32 29.06 21.36Q27.92 23.40 27.92 26L27.92 26Q27.92 28.60 29.06 30.64Q30.20 32.68 32.20 33.82Q34.20 34.96 36.68 34.96L36.68 34.96Z M75.80 33.76L75.80 25.56L81.72 25.56L81.72 36.92Q79.44 38.64 76.44 39.56Q73.44 40.48 70.40 40.48L70.40 40.48Q66.04 40.48 62.56 38.62Q59.08 36.76 57.10 33.46Q55.12 30.16 55.12 26L55.12 26Q55.12 21.84 57.10 18.54Q59.08 15.24 62.60 13.38Q66.12 11.52 70.52 11.52L70.52 11.52Q74.20 11.52 77.20 12.76Q80.20 14 82.24 16.36L82.24 16.36L78.08 20.20Q75.08 17.04 70.84 17.04L70.84 17.04Q68.16 17.04 66.08 18.16Q64 19.28 62.84 21.32Q61.68 23.36 61.68 26L61.68 26Q61.68 28.60 62.84 30.64Q64 32.68 66.06 33.82Q68.12 34.96 70.76 34.96L70.76 34.96Q73.56 34.96 75.80 33.76L75.80 33.76Z M101.28 40.48Q96.92 40.48 93.42 38.60Q89.92 36.72 87.94 33.42Q85.96 30.12 85.96 26L85.96 26Q85.96 21.88 87.94 18.58Q89.92 15.28 93.42 13.40Q96.92 11.52 101.28 11.52L101.28 11.52Q105.64 11.52 109.12 13.40Q112.60 15.28 114.60 18.58Q116.60 21.88 116.60 26L116.60 26Q116.60 30.12 114.60 33.42Q112.60 36.72 109.12 38.60Q105.64 40.48 101.28 40.48L101.28 40.48ZM101.28 34.96Q103.76 34.96 105.76 33.82Q107.76 32.68 108.90 30.64Q110.04 28.60 110.04 26L110.04 26Q110.04 23.40 108.90 21.36Q107.76 19.32 105.76 18.18Q103.76 17.04 101.28 17.04L101.28 17.04Q98.80 17.04 96.80 18.18Q94.80 19.32 93.66 21.36Q92.52 23.40 92.52 26L92.52 26Q92.52 28.60 93.66 30.64Q94.80 32.68 96.80 33.82Q98.80 34.96 101.28 34.96L101.28 34.96Z"/></g>
</svg>
</g></svg></svg>